<svg width="180" height="37" viewBox="0 0 180 37" fill="none" xmlns="http://www.w3.org/2000/svg">
<path d="M24.3696 36.337H31.0192V0.337036H24.3696V36.337Z" fill="black"/>
<path d="M46.5106 36.337L58.1628 18.337L46.5106 0.337036H54.4618L62.0378 12.337L69.5378 0.337036H77.489L65.8368 18.337L77.489 36.337H69.5378L62.0378 24.337L54.4618 36.337H46.5106Z" fill="black"/>
<path d="M85.3471 36.337H92.0003V0.337036H85.3471V36.337Z" fill="black"/>
<path d="M100.563 36.337H120.338V29.837H107.213V0.337036H100.563V36.337Z" fill="black"/>
<path d="M128.563 36.337H148.338V29.837H135.213V0.337036H128.563V36.337Z" fill="black"/>
<path d="M156.563 36.337H176.338V29.837H163.213V0.337036H156.563V36.337Z" fill="black"/>
<path d="M0 18.337C0 8.53704 8.20001 0.337036 18 0.337036C27.8 0.337036 36 8.53704 36 18.337C36 28.137 27.8 36.337 18 36.337C8.20001 36.337 0 28.137 0 18.337ZM29.3333 18.337C29.3333 12.137 24.2 6.93704 18 6.93704C11.8 6.93704 6.66667 12.137 6.66667 18.337C6.66667 24.537 11.8 29.737 18 29.737C24.2 29.737 29.3333 24.537 29.3333 18.337Z" fill="black"/>
</svg>
